<svg width="37" height="37" viewBox="0 0 37 37" fill="none" xmlns="http://www.w3.org/2000/svg">
<circle cx="18.5" cy="18.5" r="18.5" fill="#8892EC"/>
<path d="M18.5 30C24.8513 30 30 24.8513 30 18.5C30 12.1487 24.8513 7 18.5 7C12.1487 7 7 12.1487 7 18.5C7 24.8513 12.1487 30 18.5 30Z" fill="#8892EC"/>
<path d="M18.5 11.6V18.5L23.1 20.8" fill="#8892EC"/>
<path d="M18.5 11.6V18.5L23.1 20.8M30 18.5C30 24.8513 24.8513 30 18.5 30C12.1487 30 7 24.8513 7 18.5C7 12.1487 12.1487 7 18.5 7C24.8513 7 30 12.1487 30 18.5Z" stroke="white" stroke-width="2" stroke-linecap="round" stroke-linejoin="round"/>
</svg>
