<?xml version="1.0" standalone="no"?>
<!DOCTYPE svg PUBLIC "-//W3C//DTD SVG 20010904//EN"
 "http://www.w3.org/TR/2001/REC-SVG-20010904/DTD/svg10.dtd">
<svg version="1.0" xmlns="http://www.w3.org/2000/svg"
 width="960.000000pt" height="960.000000pt" viewBox="0 0 960.000000 960.000000"
 preserveAspectRatio="xMidYMid meet">
<metadata>
Created by potrace 1.14, written by Peter Selinger 2001-2017
</metadata>
<g transform="translate(0.000000,960.000000) scale(0.100000,-0.100000)"
fill="#000000" stroke="none">
<path d="M4569 9516 c-2 -2 -53 -7 -114 -10 -60 -4 -128 -8 -150 -11 -85 -9
-142 -16 -200 -25 -33 -5 -78 -12 -100 -15 -22 -4 -50 -8 -62 -11 -26 -5 -64
-12 -108 -20 -16 -3 -86 -19 -154 -35 -68 -16 -134 -31 -145 -34 -12 -2 -23
-5 -26 -6 -3 -1 -9 -3 -15 -4 -5 -1 -17 -4 -25 -7 -16 -6 -345 -115 -370 -122
-8 -3 -44 -16 -79 -30 -36 -14 -71 -26 -78 -26 -7 0 -13 -4 -13 -9 0 -5 -11
-12 -25 -15 -51 -13 -400 -179 -427 -204 -10 -8 -18 -13 -18 -9 0 12 -404
-236 -438 -270 -7 -7 -17 -13 -22 -13 -5 0 -15 -6 -22 -13 -7 -7 -47 -37 -88
-67 -41 -30 -77 -57 -80 -60 -3 -3 -39 -32 -80 -65 -41 -33 -80 -64 -86 -70
-6 -5 -39 -35 -74 -65 -125 -109 -371 -361 -456 -467 -22 -26 -44 -52 -50 -58
-11 -10 -111 -136 -147 -186 -9 -13 -44 -62 -77 -109 -33 -47 -63 -89 -67 -95
-18 -23 -63 -95 -63 -100 0 -4 -11 -21 -24 -38 -13 -18 -41 -63 -61 -102 -21
-38 -43 -77 -50 -85 -39 -51 -275 -568 -275 -604 0 -9 -4 -16 -10 -16 -5 0 -9
-3 -8 -7 1 -5 -9 -39 -22 -78 -13 -38 -25 -73 -26 -77 -1 -5 -2 -9 -4 -10 -1
-2 -3 -10 -6 -18 -2 -8 -22 -76 -44 -150 -22 -74 -42 -150 -45 -169 -3 -18 -8
-37 -11 -42 -3 -5 -8 -22 -10 -37 -3 -15 -9 -43 -14 -62 -5 -19 -11 -51 -14
-70 -3 -19 -8 -45 -10 -56 -2 -12 -7 -39 -10 -60 -3 -22 -8 -50 -11 -64 -5
-28 -13 -81 -21 -155 -3 -27 -7 -60 -9 -72 -26 -160 -27 -779 -1 -943 3 -14 7
-54 11 -90 4 -36 9 -76 11 -90 2 -14 5 -41 8 -60 7 -51 16 -103 22 -121 2 -10
6 -30 9 -45 2 -16 8 -49 14 -74 5 -25 12 -56 15 -70 3 -14 14 -61 26 -105 18
-71 23 -90 34 -130 20 -73 29 -102 37 -111 5 -6 7 -13 4 -16 -4 -4 48 -161 82
-248 4 -8 7 -17 7 -20 1 -6 22 -56 63 -148 13 -29 23 -54 23 -57 0 -2 27 -60
60 -129 33 -69 60 -130 60 -136 0 -5 4 -10 9 -10 5 0 12 -9 16 -20 12 -37 128
-235 220 -375 118 -178 130 -195 244 -339 96 -122 109 -138 196 -235 73 -82
300 -308 374 -371 35 -30 69 -60 75 -65 12 -11 114 -94 131 -108 6 -4 23 -18
38 -32 15 -14 31 -25 35 -25 4 0 18 -10 32 -22 49 -45 345 -243 439 -295 28
-15 68 -38 89 -50 20 -12 58 -32 85 -45 26 -13 47 -26 47 -30 0 -5 4 -8 9 -8
5 0 70 -29 143 -64 148 -70 199 -92 211 -88 4 1 7 -3 7 -10 0 -6 3 -8 7 -5 3
4 15 -1 26 -10 10 -10 22 -17 26 -17 9 2 61 -16 176 -59 17 -7 32 -12 35 -13
3 0 12 -3 20 -7 41 -16 168 -56 192 -61 15 -2 31 -7 35 -9 10 -6 198 -57 233
-63 14 -3 39 -9 55 -14 17 -5 50 -12 75 -16 51 -9 59 -11 63 -14 1 -1 16 -4
32 -6 17 -2 41 -6 55 -8 14 -2 43 -7 65 -11 22 -3 54 -9 70 -12 39 -8 64 -11
215 -28 190 -21 547 -31 740 -21 136 8 266 17 290 21 56 8 107 15 150 20 25 2
56 7 70 9 14 3 41 7 60 10 19 3 46 8 60 11 14 3 39 8 55 10 17 3 41 7 55 10
70 15 117 26 135 30 24 6 63 15 90 20 11 3 90 25 175 50 85 25 162 48 170 50
8 2 32 11 53 19 20 9 37 13 37 9 0 -5 4 -3 8 2 4 6 32 18 62 29 30 10 66 23
80 28 14 5 25 9 25 8 0 -1 34 14 75 33 41 18 90 40 109 48 74 30 356 172 359
180 2 5 12 9 23 9 10 0 19 3 19 8 0 4 26 20 58 37 31 16 68 37 82 46 224 147
350 232 367 249 12 11 25 20 27 20 3 0 14 6 23 14 10 8 60 48 110 89 51 41 99
81 107 89 8 7 36 31 62 53 68 56 328 317 399 399 33 37 65 73 70 80 34 37 179
222 220 281 27 39 54 75 60 81 5 6 19 27 30 47 11 20 23 37 27 37 5 0 8 7 8
15 0 7 6 18 13 22 6 4 18 19 25 32 32 56 53 91 109 186 47 81 184 345 189 365
0 3 13 32 29 65 15 33 44 103 65 155 20 52 41 104 45 115 4 11 9 25 11 30 1 6
16 48 32 95 50 142 140 477 156 575 13 87 24 150 26 150 1 0 3 11 5 25 13 93
16 119 20 155 2 22 6 58 9 80 15 112 20 244 20 480 0 290 -8 413 -39 630 -3
22 -7 56 -9 75 -3 19 -5 35 -6 35 -1 0 -3 11 -5 25 -2 14 -6 39 -10 55 -3 17
-8 46 -11 65 -3 19 -8 42 -11 50 -3 8 -7 29 -10 45 -3 17 -11 55 -20 85 -8 30
-17 69 -20 85 -3 17 -9 38 -15 48 -5 10 -7 21 -5 24 3 2 -1 19 -8 37 -8 18
-16 44 -19 57 -5 28 -92 284 -106 314 -5 11 -19 45 -30 75 -12 30 -27 69 -34
85 -8 17 -22 48 -31 70 -45 101 -140 291 -149 297 -6 4 -8 8 -4 8 4 0 -5 21
-21 48 -15 26 -56 94 -90 152 -86 146 -85 144 -91 150 -14 14 -70 102 -70 110
0 6 -4 10 -8 10 -5 0 -17 16 -28 35 -10 19 -22 35 -26 35 -5 0 -8 7 -8 16 0 8
-4 12 -10 9 -5 -3 -10 0 -10 8 0 7 -8 22 -18 33 -10 10 -38 46 -64 79 -25 33
-54 70 -64 82 -11 12 -37 43 -59 70 -103 123 -316 340 -450 458 -49 43 -92 81
-95 85 -3 3 -41 34 -85 68 -44 35 -88 69 -97 77 -10 8 -36 26 -58 41 -22 15
-40 30 -40 33 0 4 -16 15 -35 25 -19 11 -35 22 -35 26 0 4 -8 10 -17 14 -22 7
-50 25 -77 49 -11 9 -26 17 -33 17 -7 0 -13 4 -13 8 0 5 -20 19 -45 32 -25 13
-45 27 -45 32 0 4 -5 8 -11 8 -7 0 -35 14 -63 32 -60 36 -105 62 -201 113 -38
20 -76 42 -84 48 -8 7 -17 11 -20 10 -3 -1 -42 15 -86 36 -94 45 -120 56 -257
115 -30 13 -76 29 -88 31 -3 0 -14 5 -25 11 -11 6 -78 30 -150 53 -71 24 -137
45 -145 48 -8 4 -19 5 -24 4 -4 -1 -13 3 -20 8 -6 5 -23 12 -36 15 -14 3 -36
8 -50 11 -14 3 -32 8 -40 10 -8 2 -15 4 -15 5 0 1 -8 3 -19 5 -10 2 -41 9 -70
16 -28 7 -53 14 -56 14 -3 1 -30 7 -60 13 -89 20 -104 23 -125 27 -23 4 -88
14 -125 20 -14 2 -36 6 -50 9 -26 5 -98 15 -160 21 -55 6 -161 17 -205 22 -52
5 -601 14 -606 9z"/>
</g>
</svg>
